<svg width="42" height="42" viewBox="0 0 42 42" fill="none" xmlns="http://www.w3.org/2000/svg">
<rect width="42" height="42" rx="7" fill="#DCDCDC"/>
<path d="M35 17V15H27V29H29V23H34V21H29V17H35ZM13 15H7V29H9V24H13C13.5304 24 14.0391 23.7893 14.4142 23.4142C14.7893 23.0391 15 22.5304 15 22V17C15 16.4696 14.7893 15.9609 14.4142 15.5858C14.0391 15.2107 13.5304 15 13 15ZM13 22H9V17H13V22ZM21 29H17V15H21C22.0609 15 23.0783 15.4214 23.8284 16.1716C24.5786 16.9217 25 17.9391 25 19V25C25 26.0609 24.5786 27.0783 23.8284 27.8284C23.0783 28.5786 22.0609 29 21 29ZM19 27H21C21.5304 27 22.0391 26.7893 22.4142 26.4142C22.7893 26.0391 23 25.5304 23 25V19C23 18.4696 22.7893 17.9609 22.4142 17.5858C22.0391 17.2107 21.5304 17 21 17H19V27Z" fill="black"/>
</svg>
