<svg width="24" height="24" viewBox="0 0 24 24" fill="none" xmlns="http://www.w3.org/2000/svg">
<path d="M6.5806 17.6655L16.2061 3.91496C16.2611 3.831 16.3325 3.75895 16.4159 3.70307C16.4993 3.64719 16.5931 3.60863 16.6917 3.58967C16.7903 3.57071 16.8917 3.57173 16.9898 3.59269C17.088 3.61364 17.181 3.65409 17.2633 3.71164C17.3455 3.7692 17.4154 3.84268 17.4687 3.92773C17.5221 4.01279 17.5578 4.10769 17.5738 4.20681C17.5897 4.30592 17.5857 4.40724 17.5618 4.50475C17.5378 4.60226 17.4946 4.69397 17.4346 4.77446L7.3651 19.1595C7.30752 19.242 7.23391 19.3121 7.14865 19.3656C7.0634 19.4191 6.96825 19.4549 6.86888 19.4709C6.7695 19.4868 6.66793 19.4826 6.57021 19.4585C6.47249 19.4344 6.38063 19.3908 6.3001 19.3305L0.900101 15.2805C0.821308 15.2214 0.754926 15.1473 0.704745 15.0626C0.654564 14.9778 0.621567 14.884 0.607639 14.7865C0.579508 14.5896 0.630753 14.3896 0.750101 14.2305C0.869448 14.0713 1.04712 13.9661 1.24403 13.938C1.44095 13.9099 1.64097 13.9611 1.8001 14.0805L6.5806 17.6655ZM17.2501 10.5C17.0512 10.5 16.8604 10.4209 16.7198 10.2803C16.5791 10.1396 16.5001 9.94887 16.5001 9.74996C16.5001 9.55105 16.5791 9.36028 16.7198 9.21963C16.8604 9.07898 17.0512 8.99996 17.2501 8.99996H21.7501C21.949 8.99996 22.1398 9.07898 22.2804 9.21963C22.4211 9.36028 22.5001 9.55105 22.5001 9.74996C22.5001 9.94887 22.4211 10.1396 22.2804 10.2803C22.1398 10.4209 21.949 10.5 21.7501 10.5H17.2501ZM14.2501 15C14.0512 15 13.8604 14.9209 13.7198 14.7803C13.5791 14.6396 13.5001 14.4489 13.5001 14.25C13.5001 14.051 13.5791 13.8603 13.7198 13.7196C13.8604 13.579 14.0512 13.5 14.2501 13.5H21.7486C21.9475 13.5 22.1383 13.579 22.2789 13.7196C22.4196 13.8603 22.4986 14.051 22.4986 14.25C22.4986 14.4489 22.4196 14.6396 22.2789 14.7803C22.1383 14.9209 21.9475 15 21.7486 15H14.2501ZM11.2501 19.5C11.0512 19.5 10.8604 19.4209 10.7198 19.2803C10.5791 19.1396 10.5001 18.9489 10.5001 18.75C10.5001 18.551 10.5791 18.3603 10.7198 18.2196C10.8604 18.079 11.0512 18 11.2501 18H21.7486C21.9475 18 22.1383 18.079 22.2789 18.2196C22.4196 18.3603 22.4986 18.551 22.4986 18.75C22.4986 18.9489 22.4196 19.1396 22.2789 19.2803C22.1383 19.4209 21.9475 19.5 21.7486 19.5H11.2501Z" fill="black"/>
</svg>
