<svg width="16" height="18" viewBox="0 0 16 18" fill="none" xmlns="http://www.w3.org/2000/svg">
<g clip-path="url(#clip0_37_686)">
<path d="M2.28571 9C2.28571 12.1078 4.84286 14.625 8 14.625C9.03214 14.625 10 14.3543 10.8357 13.8832L8.26429 10.8457C7.86071 10.3676 7.925 9.65742 8.41072 9.26016C8.89643 8.86289 9.61786 8.92617 10.0214 9.4043L12.5536 12.3961C13.2821 11.4539 13.7143 10.2762 13.7143 9C13.7143 5.89219 11.1571 3.375 8 3.375C4.84286 3.375 2.28571 5.89219 2.28571 9ZM12.3179 15.6305C11.0714 16.418 9.58929 16.875 8 16.875C3.58214 16.875 0 13.3488 0 9C0 4.65117 3.58214 1.125 8 1.125C12.4179 1.125 16 4.65117 16 9C16 10.9723 15.2643 12.7758 14.0464 14.1574L15.7357 16.1543C16.1393 16.6324 16.075 17.3426 15.5893 17.7398C15.1036 18.1371 14.3821 18.0738 13.9786 17.5957L12.3143 15.6305H12.3179Z" fill="black"/>
</g>
<defs>
<clipPath id="clip0_37_686">
<rect width="16" height="18" fill="white"/>
</clipPath>
</defs>
</svg>
