<svg width="16" height="16" viewBox="0 0 16 16" fill="none" xmlns="http://www.w3.org/2000/svg">
<g clip-path="url(#clip0_37_548)">
<path d="M16 8.0001C16.0026 9.77698 15.4112 11.5038 14.32 12.9061C13.9097 13.4347 13.4346 13.9098 12.906 14.3201C11.478 15.4287 9.71663 16.0211 7.90891 16.0005C6.1012 15.9799 4.35375 15.3476 2.95138 14.2067C1.54901 13.0658 0.574406 11.4836 0.186419 9.7179C-0.201569 7.95219 0.019935 6.10713 0.814829 4.48343C1.60972 2.85973 2.93114 1.55313 4.5637 0.776597C6.19626 6.27041e-05 8.0437 -0.200623 9.80492 0.207251C11.5661 0.615124 13.1373 1.60751 14.2623 3.02265C15.3873 4.4378 15.9998 6.19226 16 8.0001ZM12.89 11.4761L4.52401 3.1101C3.97698 3.49871 3.49901 3.97634 3.11001 4.5231L11.477 12.8911C12.0246 12.502 12.5029 12.0236 12.892 11.4761H12.89Z" fill="black"/>
</g>
<defs>
<clipPath id="clip0_37_548">
<rect width="16" height="16" fill="white"/>
</clipPath>
</defs>
</svg>
