<svg height="256px" width="256px" version="1.1" id="Layer_1" xmlns="http://www.w3.org/2000/svg" xmlns:xlink="http://www.w3.org/1999/xlink" viewBox="0 0 512 512" xml:space="preserve" fill="#000000"><g id="SVGRepo_bgCarrier" stroke-width="0"></g><g id="SVGRepo_tracerCarrier" stroke-linecap="round" stroke-linejoin="round"></g><g id="SVGRepo_iconCarrier"> <polygon style="fill:#DEDDE0;" points="292.141,466.824 256,512 219.859,466.824 219.859,240.941 292.141,240.941 "></polygon> <polygon style="fill:#DEDDE0;" points="256,512 219.859,466.824 219.859,240.941 256,240.941 "></polygon> <path style="fill:#e21217;" d="M328.449,219.026l-8.739-113.614h41.701V75.294C361.412,33.711,327.701,0,286.118,0h-60.235 c-41.583,0-75.294,33.711-75.294,75.294v30.118h41.701l-8.74,113.614c-37.941,15.953-64.584,53.468-64.584,97.209h274.071 C393.035,272.492,366.393,234.979,328.449,219.026z"></path> <path style="fill:#e21217;" d="M225.882,0c-41.583,0-75.294,33.711-75.294,75.294v30.118h41.701l-8.74,113.614 c-37.941,15.953-64.584,53.468-64.584,97.209H256V0H225.882z"></path> </g></svg>