<svg width="40" height="40" viewBox="0 0 40 40" fill="none" xmlns="http://www.w3.org/2000/svg">
<path d="M38.3337 19.9993C38.3337 25.5744 35.8453 30.5694 31.917 33.9327C28.5991 36.7778 24.371 38.3389 20.0003 38.3327C15.4503 38.3327 11.2887 36.676 8.08367 33.9327C6.06958 32.2129 4.45278 30.0764 3.34494 27.6708C2.2371 25.2652 1.6646 22.6478 1.667 19.9993C1.667 9.87435 9.87533 1.66602 20.0003 1.66602C30.1253 1.66602 38.3337 9.87435 38.3337 19.9993ZM26.667 14.166C26.667 12.3979 25.9646 10.7022 24.7144 9.45197C23.4641 8.20173 21.7684 7.49935 20.0003 7.49935C18.2322 7.49935 16.5365 8.20173 15.2863 9.45197C14.036 10.7022 13.3337 12.3979 13.3337 14.166C13.3337 15.9341 14.036 17.6298 15.2863 18.8801C16.5365 20.1303 18.2322 20.8327 20.0003 20.8327C21.7684 20.8327 23.4641 20.1303 24.7144 18.8801C25.9646 17.6298 26.667 15.9341 26.667 14.166ZM30.8337 30.3744V29.9994C30.8337 28.2312 30.1313 26.5355 28.881 25.2853C27.6308 24.0351 25.9351 23.3327 24.167 23.3327H15.8337C14.0656 23.3327 12.3699 24.0351 11.1196 25.2853C9.86938 26.5355 9.167 28.2312 9.167 29.9994V30.3744C9.51144 30.7332 9.87255 31.0749 10.2503 31.3994C12.9644 33.7281 16.4241 35.0055 20.0003 34.9994C22.0253 35.0032 24.0299 34.5952 25.8923 33.8001C27.7546 33.005 29.4358 31.8395 30.8337 30.3744Z" fill="black"/>
</svg>
