<svg width="380" height="254" viewBox="0 0 380 254" fill="none" xmlns="http://www.w3.org/2000/svg">
<g clip-path="url(#clip0_1030_6576)">
<path d="M120.701 32.4754C120.706 32.5632 120.438 33.6392 120.554 33.6846C121.219 33.9151 126.634 31.7664 128.043 31.1969C129.755 30.5045 133.312 29.0379 132.421 27.9403C131.361 26.6463 123.464 31.9566 123.668 29.8916C122.888 30.0425 121.813 29.9288 120.785 30.7122C119.724 31.5173 119.935 31.9586 120.835 31.8036C120.592 31.9235 120.191 32.1922 119.887 32.3359C119.972 32.3648 120.701 32.3969 120.701 32.4754Z" fill="#333333"/>
<path d="M282.392 158.367C282.203 158.998 282.04 159.667 281.908 160.501C281.856 160.554 281.731 160.715 281.664 160.751C281.376 161.732 281.231 162.537 281.09 163.329C276.524 174.413 270.214 184.591 262.516 193.539L264.759 202.484C273.931 192.736 281.475 181.443 286.966 169.03L282.392 158.367Z" fill="#333333"/>
<path d="M242.507 211.777C230.601 220.238 216.974 226.403 202.257 229.631C196.071 233.275 189.771 236.663 183.421 239.761C206.822 238.806 228.479 231.018 246.491 218.339L242.507 211.777Z" fill="#333333"/>
<mask id="mask0_1030_6576" style="mask-type:luminance" maskUnits="userSpaceOnUse" x="54" y="2" width="272" height="250">
<path d="M54.561 2.13867H325.509V251.948H54.561V2.13867Z" fill="white"/>
</mask>
<g mask="url(#mask0_1030_6576)">
<path d="M241.897 34.1863C242.012 33.4587 241.822 32.3952 241.182 31.341C240.733 30.6248 240.151 30.1411 239.472 29.4156C238.796 28.6776 238.638 28.3045 238.264 27.7309C237.984 27.301 237.613 26.9775 237.219 26.7056C238.117 27.2658 239.012 27.8374 239.891 28.4234C240.59 29.3939 241.513 30.4966 242.078 31.5136C243.052 33.2603 244.316 34.6524 241.897 34.1863ZM234.342 28.4906C233.57 28.0224 232.868 27.7774 232.079 27.4684C230.229 26.7408 228.8 26.3884 226.997 25.2835C226.333 24.8691 226.003 24.5683 225.256 24.1673C224.618 23.8293 224.082 23.7477 223.472 23.3704C221.754 22.31 221.166 21.1515 222.104 21.0088C222.482 20.9644 223.204 21.169 223.571 21.1515C224.032 21.1256 224.332 20.9644 224.664 20.891C225.247 20.7422 226.079 20.8538 227.011 21.0088C230.341 22.6346 233.574 24.4319 236.708 26.377C235.041 25.5326 233.16 25.885 234.075 27.2017C234.762 28.2053 236.39 29.3411 237.586 30.4966C236.236 30.138 235.589 29.2554 234.342 28.4906ZM232.545 72.9674C231.459 72.9168 227.388 71.0947 226.63 70.1045C225.92 69.1496 225.832 65.6624 225.229 64.4274C225.229 64.4212 224.247 63.1458 224.195 63.0579C223.967 62.752 224.037 62.1319 223.769 61.7195C223.178 60.8266 221.696 60.3759 221.446 59.1884C221.102 57.4097 226.094 54.3732 228.1 56.2036C230.354 58.2851 226.488 57.4097 226.257 58.6417C225.949 60.3542 229.283 61.5738 229.869 63.3401C230.74 65.9632 230.233 66.574 232.415 69.1237C233.976 70.9427 235.587 73.11 232.545 72.9674ZM241.653 29.8858C241.407 29.6698 241.233 29.4486 241.077 29.2264C241.626 29.6037 242.159 29.9985 242.702 30.386C242.775 30.6641 242.725 30.8294 241.653 29.8858ZM212.772 63.2192C212.733 63.2264 210.677 62.2663 210.281 62.196C209.099 61.9893 207.992 62.3035 206.692 62.0988C204.738 61.7836 203.105 61.1356 201.056 60.934C198.908 60.7242 196.735 60.7418 194.669 61.3733C193.42 61.7578 192.954 63.2192 191.716 61.8808C191.207 61.332 191.756 59.8096 191.967 59.3217C192.241 58.6892 193.187 58.3564 193.367 57.8004C193.598 57.1059 193.059 56.4692 193.216 55.7974C193.473 54.7174 193.128 54.4859 194.229 53.7975C195.63 52.9108 198.441 53.1423 199.262 54.8249C199.974 55.3706 200.681 55.9256 201.395 56.4754C202.895 56.6087 205.157 57.0128 205.245 55.476C203.679 55.6041 202.149 55.0553 203.366 53.8192C203.976 53.195 207.028 52.7082 207.978 52.611C207.998 52.5873 208.027 53.1113 208.021 53.1051C207.794 53.0937 207.43 53.0079 207.233 53.072C206.909 54.737 206.527 54.8745 205.522 56.0403C206.239 56.5126 217.784 61.8663 212.772 63.2192ZM204.212 74.9497C204.033 75.9492 204.387 77.4157 203.989 78.3552C202.93 80.8439 200.707 79.3298 198.045 79.4156C195.831 79.489 193.624 79.2668 191.282 79.211C190.143 79.1841 188.527 79.4425 187.437 79.1355C185.944 78.7087 185.143 77.4312 183.665 77.0054C182.879 76.7718 179.945 76.7667 179.308 77.2452C178.592 77.7837 179.116 79.4859 178.478 80.1081C177.686 80.876 173.233 81.1654 171.854 80.6889C170.273 80.1401 170.643 78.565 169.63 77.9697C168.884 77.5325 167.148 78.04 166.265 77.7713C165.022 77.3827 161.125 76.0132 161.031 74.9745C161.259 74.866 161.468 75.0035 161.693 74.8794C160.472 72.5984 163.309 70.6451 163.082 68.3403C159.395 68.2969 154.999 68.1243 151.527 68.8405C147.598 69.6663 144.103 71.258 140.377 72.707C139.428 73.0687 135.785 74.8443 135.409 73.0687C135.062 71.3861 138.686 70.7536 139.688 70.3919C144.185 68.7641 143.005 65.9787 145.685 62.7954C146.681 62.3862 147.683 61.98 148.679 61.5769C149.174 61.0756 148.638 59.4127 150.248 58.7151C151.525 58.1714 152.594 59.4943 153.149 59.514C154.481 59.5471 161.113 54.4549 160.726 57.3198C157.851 57.5265 156.603 63.8341 158.567 65.3007C160.786 66.9482 160.97 64.909 160.697 63.6006C160.346 61.9397 159.414 61.0188 159.797 59.1646C160.51 60.5062 164.18 59.8798 165.439 60.9785C166.626 62.0213 166.26 62.8998 167.765 63.7618C168.718 64.3106 170.026 63.5106 170.069 65.1488C168.376 66.665 161.986 66.4862 166.222 68.6535C167.192 69.1413 169.129 69.7077 170.288 69.0214C171.64 68.2101 170.707 66.4283 172.69 66.5978C172.221 64.1256 177.4 65.8288 175.632 63.245C175.166 62.5577 173.445 62.4761 172.711 62.0503C171.907 61.5852 170.626 60.3325 169.737 59.6928C168.354 58.7027 164.55 56.3731 164.987 54.8889C165.721 52.4074 168.45 54.8135 169.603 55.7623C170.471 56.4692 171.141 57.5761 172.114 58.2221C172.947 58.7729 174.436 58.9776 175.108 59.5853C176.069 60.4669 175.644 61.4022 176.326 62.4451C176.914 63.3473 178.067 63.5282 178.542 64.4915C179.246 65.8991 178.627 66.9595 179.699 68.3351C180.31 69.1186 181.871 70.3588 182.622 70.9892C184.475 72.553 186.758 74.8422 189.261 73.3002C188.007 71.413 184.362 71.413 184.079 69.1062C187.921 68.6245 181.074 61.3816 185.77 62.3541C186.162 62.4389 188.71 65.8764 188.894 66.3022C189.637 68.0168 188.706 69.7056 189.443 71.5205C190.772 70.3185 191.313 70.8032 192.71 70.7505C194.055 70.703 194.669 70.8063 196.08 70.4931C200.46 69.5423 198.91 70.7856 200.183 74.0764C200.274 74.0619 200.769 74.094 200.87 74.1033C200.85 73.1855 200.795 72.2191 200.809 71.3138C202.99 72.7886 203.83 69.1206 204.981 71.9391C205.541 73.3312 204.374 74.0278 204.212 74.9497ZM165.776 38.5954C166.848 38.2512 167.229 37.9122 168.237 37.4595C169.726 36.8043 172.277 36.5924 173.182 35.4348C173.675 34.7992 173.043 34.0396 173.43 33.4556C174.021 32.5699 175.702 32.696 176.334 31.7958C177.228 30.5349 175.307 29.7866 174.662 28.8089C172.871 26.0752 177.989 26.8049 179.806 25.4354C180.302 25.0561 179.588 24.4629 179.945 24.1074C180.451 23.6133 183.267 22.9756 184.201 23.5927C185.486 24.434 183.135 25.3476 182.189 25.6773C180.086 26.4028 179.34 26.531 179.45 28.2425C179.515 29.1913 179.576 30.4966 180.953 30.9183C182.137 31.2769 184.779 30.8852 186.115 30.9379C188.087 31.0082 189.839 30.8449 191.833 30.8501C192.997 32.8861 184.254 31.7141 182.44 32.2609C179.926 33.0226 179.075 34.9646 178.522 36.7267C178.064 38.1985 178.263 38.3618 175.766 38.5251C174.115 38.6326 172.883 38.4982 171.383 38.768C169.068 39.1855 165.158 40.2345 162.956 39.4573C163.862 38.7101 164.716 38.9313 165.776 38.5954ZM54.9619 191.467C54.3382 198.091 54.2857 205.48 55.9546 213.248C56.9101 217.09 58.0492 221.091 60.0417 224.895C60.886 226.821 62.1735 228.75 63.4517 230.698C64.1042 231.768 64.7041 232.343 65.336 233.19L66.2772 234.369L66.5132 234.667L66.6297 234.813L66.6884 234.89C66.7926 235.001 66.5431 234.74 66.9358 235.158L67.5327 235.762C73.7392 242.431 82.3754 247.184 91.4744 249.542C100.605 251.971 110.116 252.351 119.336 251.606C137.864 250.097 155.323 244.261 170.85 237.5C186.395 230.666 200.014 222.571 211.24 215.024C216.875 211.271 221.864 207.585 226.252 204.262C230.618 200.904 234.339 197.94 237.45 195.29C238.505 194.419 239.408 193.655 240.246 192.936L253.086 214.086L258.279 208.88L250.431 177.586L284.94 144.398L310.098 203.086L320.043 193.12L303.38 126.663L321.806 108.936C326.746 103.986 326.746 95.951 321.806 90.9932C316.863 86.0416 308.853 86.0416 303.914 90.9994L286.237 109.474L219.959 92.7657L210.015 102.739L268.549 127.964L235.449 162.566L204.244 154.698L199.05 159.905L219.088 172.133C218.547 172.705 217.982 173.298 217.397 173.901C212.564 178.975 205.152 186.353 195.747 194.317C186.328 202.308 174.759 211.052 161.439 218.771C148.157 226.432 133.049 233.353 117.339 236.399C109.51 237.93 101.555 238.459 94.07 237.337C86.5873 236.26 79.6695 233.389 74.2433 228.768L73.7186 228.353C74.066 228.727 73.7774 228.417 73.8382 228.484L73.7712 228.417L73.6382 228.283L73.3692 228.014L72.3064 226.946C71.6632 226.253 70.7478 225.486 70.3406 224.866C69.3273 223.569 68.2285 222.357 67.3286 220.789C65.3422 217.877 64.0114 214.603 62.7971 211.367C60.5891 204.782 59.8376 197.98 59.7387 191.689C59.6655 185.372 60.3737 179.543 61.1365 174.397C61.7333 170.898 62.3941 167.741 63.0641 164.917C63.3764 163.597 63.6908 162.326 64.0021 161.166C64.4804 159.364 64.935 157.761 65.3504 156.365C74.9247 187.115 96.6584 212.511 124.865 226.946C128.244 225.92 131.648 224.682 135.059 223.294C114.435 214.446 97.0315 199.493 85.0669 180.726C85.6235 180.81 86.109 180.679 85.6874 179.592C85.2967 178.583 84.2515 178.012 84.1752 176.79C85.3112 178.038 85.7132 178.182 86.1327 177.527C86.4327 177.057 87.3914 176.146 86.8203 174.944C87.8944 174.16 87.8686 172.343 87.8769 170.091C87.88 168.651 87.5429 168.352 88.5644 168.208C89.3015 168.098 89.6365 168.255 90.3096 167.834C91.3528 167.185 92.0548 167.443 92.4362 165.756C92.8052 164.116 93.0619 162.536 92.9011 160.478C92.7681 158.813 92.5289 157.186 92.6104 155.621C92.7619 152.677 93.4206 153.279 94.6689 151.625C95.7502 150.183 95.5461 148.295 95.3719 145.937C95.1039 142.274 94.8472 143.726 93.0031 142.204C92.6104 141.879 92.765 140.91 92.3218 140.6C91.862 140.274 91.6177 140.682 91.2301 140.499C90.5859 140.167 89.8694 139.794 89.2437 139.482C88.014 138.88 86.9192 137.709 85.7276 137.528C85.3957 134.97 83.7268 134.242 82.495 134.26C82.1455 134.266 81.1724 135.232 80.8519 134.996C79.6056 134.076 80.0777 129.783 79.3933 128.031C78.915 126.807 78.0851 125.945 77.4244 125.387C77.1935 125.197 75.4019 124.523 75.3762 124.427C75.2483 123.798 74.2722 121.888 73.9722 121.479C73.5382 120.901 73.0084 120.484 72.6064 119.953C72.1023 119.289 71.6364 118.126 71.0509 119.099C70.8736 117.899 70.2066 119.336 69.7263 119.132C69.2191 118.924 69.0068 117.654 68.5872 117.11C68.3068 116.757 68.0244 116.801 67.745 117.037C68.3068 101.141 72.1868 86.0808 78.749 72.5488C78.9067 72.3432 79.0634 72.123 79.2129 71.9618C79.8736 71.2445 82.0383 69.5619 81.056 69.2178C80.858 69.1558 80.5055 69.4586 80.1324 69.8451C80.9189 68.332 81.7373 66.8427 82.5878 65.3699C83.1825 64.6527 83.7093 63.8455 84.3474 63.3959C83.4794 64.4015 82.0383 66.5647 81.6559 67.8442C81.9301 67.8184 82.4187 67.3543 82.7218 67.3016C83.2866 67.1869 83.0537 67.5931 83.4093 68.023C83.7907 68.4633 84.8452 67.9961 85.5946 67.7915C87.178 64.9214 85.7451 63.5189 84.3298 64.4501C84.6442 63.6471 85.4545 62.7303 85.6606 62.2776C86.1059 61.2782 85.7307 61.4901 85.8853 60.8441C86.0132 60.2881 86.4265 59.5977 86.4296 59.1646C89.2375 54.9737 92.33 50.9987 95.6626 47.2367C95.6832 47.2367 95.6925 47.2336 95.7121 47.2367C96.0853 47.2625 96.143 47.8206 96.6038 47.8103C97.4892 47.7855 97.6119 47.4362 98.5613 46.3758C98.8963 45.9903 98.9076 45.704 99.2303 45.3174C99.6911 44.779 100.417 44.2808 100.967 43.6679C102.217 42.2758 102.706 41.0479 103.807 39.7839C104.552 38.922 105.35 38.339 106.25 37.6032C107.439 36.6327 108.374 36.0963 109.53 35.2922C110.652 34.5016 110.337 34.5853 111.356 33.7119C113.171 32.1709 114.132 32.1596 116.11 31.2067C117.624 30.477 121.691 27.9759 122.942 26.9857C122.095 27.1335 120.823 26.9981 122.687 26.2292C123.921 25.731 123.663 26.8266 124.97 25.4551C125.783 24.6086 125.305 24.0484 125.433 23.4201C138.013 16.5099 152.063 11.9727 166.988 10.4131C167.981 10.5857 169.597 10.5113 170.841 10.5764C168.735 11.0229 171.849 11.7267 172.746 11.8115C173.256 11.7236 173.765 11.6358 174.278 11.5603C174.935 11.151 175.117 10.288 177.132 10.316C178.286 10.3253 179.351 10.9846 180.775 11.1634C183.913 11.5696 183.651 11.0167 181.734 10.5795C181.015 10.4131 178.519 10.0999 177.333 9.84053C177.741 9.83329 178.142 9.80745 178.551 9.80745C194.679 9.80745 209.999 13.307 223.837 19.5423C222.975 19.3748 222.148 19.2529 221.403 19.1981C220.749 19.1475 219.77 19.0369 219.354 19.1805C218.798 19.3583 219.383 19.7552 219.176 20.0446C218.877 20.4704 217.003 20.2172 217.274 20.9582C217.647 21.9928 219.331 22.3142 220.804 22.7751C222.003 23.1462 223.496 23.727 224.687 24.3874C225.211 24.6872 228.176 26.3904 228.322 26.6447C228.83 27.5263 226.711 26.1775 226.067 25.9553C224.363 25.3538 223.705 25.731 222.278 25.6607C220.773 24.0991 220.012 24.6582 218.532 24.5859C217.679 23.1875 214.857 21.7437 215.005 23.3767C215.061 23.9554 216.039 24.4577 215.634 24.9807C215.451 25.206 213.715 25.6339 213.046 25.36C211.071 24.56 215.114 24.1094 211.291 23.0439C206.754 21.7819 210.295 24.2645 211.243 25.3135C210.726 25.576 210.229 25.2835 209.525 25.2742C208.362 25.269 208.159 24.9745 207.022 25.4706C206.41 25.7445 205.555 26.6653 204.601 26.592C203.757 26.5165 202.493 25.4551 201.663 25.4861C200.022 25.544 200.782 26.7739 201.97 27.209C197.25 26.7501 199.826 23.9203 196.571 23.1989C200.043 23.5451 202.572 25.1088 205.541 24.4515C208.737 23.7301 204.514 22.5767 202.128 21.5452C199.079 20.2254 198.538 19.2704 194.778 18.9046C192.322 18.6689 190.181 18.0292 187.831 17.8483C185.992 17.716 183.945 17.8369 182.137 17.9382C180.462 18.0354 178.344 17.9382 176.806 18.2214C175.484 18.4674 174.021 19.0193 172.714 19.381C171.275 19.7779 169.711 20.2347 168.788 20.9851C167.727 21.847 167.876 22.802 166.833 23.7653C165.068 25.392 162.642 26.224 159.95 27.3423C158.524 27.9407 156.176 29.0125 155.459 30.0791C154.941 30.8625 155.107 33.5342 155.739 34.1936C158.462 36.9924 162.84 31.1746 165.493 33.9951C167.063 35.6663 165.167 38.3856 163.358 35.7945C163.033 35.3273 163.799 34.1626 162.939 33.9817C162.069 33.7967 160.053 35.7304 159.654 36.2679C158.337 38.0641 160.979 40.0444 157.883 41.5885C156.729 42.1641 155.279 41.9895 154.038 42.5321C152.59 43.1718 151.006 44.5702 149.83 45.5376C148.428 45.2254 148.187 44.1464 148.856 43.0664C146.226 42.6003 146.524 41.8282 145.527 40.3534C144.796 39.2723 142.914 38.8661 143.214 37.3923C145.955 36.8404 143.617 36.0167 142.542 35.964C143.404 35.193 144.152 34.4313 145.332 34.1243C147.004 33.0257 146.296 32.3777 144.38 33.3822C143.728 33.7212 143.273 34.5067 142.571 34.9305C141.788 35.3976 140.983 35.5382 140.535 35.748C140.465 35.7852 139.943 35.6198 139.656 35.7738C139.286 35.9795 139.056 36.6699 138.79 36.8115C138.886 36.7557 136.708 37.9205 136.967 37.6032C135.904 38.9044 137.153 39.9183 138.254 40.4702C137.139 41.1513 134.162 42.4949 132.778 42.8297C130.35 44.8782 132.033 46.2765 130.69 48.4314C133.638 47.9788 139.324 44.6673 138.718 42.0246C140.104 41.6742 142.056 41.3166 141.89 42.5672C141.671 44.1309 139.276 43.7981 138.846 45.3019C137.18 45.9789 139.3 47.4878 137.489 49.1973C139.548 48.1689 143.573 46.2683 145.964 46.3851C147.785 46.4843 148.813 47.0476 146.794 48.1782C145.571 48.8573 142.027 47.9467 142.694 50.1368C141.344 50.8261 136.001 50.3921 137.701 52.4074C138.712 53.6032 141.176 52.3888 142.233 53.9722C142.927 55.0057 143.01 57.4366 141.35 58.3451C140.645 58.7202 139.597 58.1714 138.799 58.4401C138.016 58.7089 137.538 59.6349 136.746 59.9047C135.053 60.4731 132.286 59.0107 131.241 59.8623C130.603 60.3852 129.881 64.5628 129.712 65.3296C129.534 66.174 129.662 66.9905 129.467 67.8184C129.239 68.7703 128.392 68.7238 128.503 69.8772C128.745 72.3039 131.864 70.5314 133.116 71.9184C134.555 73.5297 133.114 74.9125 131.73 76.1796C129.619 78.1309 128.608 78.6684 127.259 81.3814C126.496 82.9172 126.193 83.7368 124.955 84.8861C124.049 85.7129 122.934 85.6974 122.168 86.8601C121.708 87.5546 121.833 88.6037 121.391 89.383C120.691 90.5808 119.202 91.6588 118.337 92.7533C117.436 93.8902 114.959 96.2663 114.599 97.6191C114.193 99.1818 115.157 99.5673 115.335 100.931C115.496 102.135 115.041 103.566 115.132 104.801C115.271 106.588 115.995 108.037 115.725 109.944C115.228 113.354 112.388 114.856 115.641 116.778C116.567 117.327 117.892 117.092 118.676 118.395C119.249 119.366 118.85 120.826 119.468 121.986C120.633 124.105 123.502 126.117 125.421 127.312C128.218 129.053 128.957 128.15 131.826 127.837C132.985 127.715 133.909 128.311 134.995 128.252C136.367 128.174 136.728 127.66 137.995 127.236C141.095 126.214 145.921 124.92 148.964 127.333C150.019 128.17 149.098 128.559 151.116 129.363C154.463 130.702 157.417 128.338 158.369 132.444C159.185 135.989 156.278 137.643 158.023 140.949C158.98 142.755 160.536 144.588 161.777 146.185C163.816 148.809 166.332 149.907 166.592 153.327C166.787 155.886 166.277 158.985 165.24 161.204C163.912 164.044 161.932 165.535 162.706 168.795C163.446 171.859 165.654 174.181 166.874 176.859C167.888 179.096 167.677 181.771 167.939 184.011C168.269 186.88 170.128 186.847 171.709 189.09C172.965 190.863 172.958 193.108 174.048 194.875C175.632 197.437 176.173 195.988 178.981 195.514C180.023 195.339 180.861 195.533 181.813 195.533C189.31 189.793 196.094 183.993 201.729 178.684L204.748 175.744C204.174 174.695 203.343 173.786 203.573 172.601C203.597 172.489 203.724 172.291 203.894 172.061L186.454 161.418L201.846 145.983L212.696 148.719C212.36 147.406 212.172 146.617 213.363 144.599C217.082 138.291 223.109 133.943 227.037 128.08C228.403 126.039 229.591 122.928 230.403 120.078L225.68 118.043C223.135 118.449 220.528 118.206 219.093 116.603C218.402 115.822 217.831 115.105 217.245 114.406L196.297 105.379L206.144 95.5014C205.871 94.6229 205.586 93.7579 205.179 92.9817C204.057 90.8609 202.508 89.9648 202.639 87.4523C202.851 83.5135 205.632 85.0225 207.028 88.1076C207.714 89.6165 208.19 91.2619 208.775 92.8608L217.56 84.0499L227.005 86.4343C226.997 86.3082 226.962 86.1739 226.979 86.0571C227.358 83.6355 229.735 86.0157 231.104 87.4637L283.732 100.734L293.219 90.8206C279.858 39.848 233.521 2.13867 178.551 2.13867C113.179 2.13867 59.9974 55.4646 59.9974 121.013C59.9974 132.899 61.7684 144.376 65.0216 155.211C64.3516 156.757 63.5981 158.585 62.7528 160.757C62.6858 160.928 62.6188 161.12 62.5518 161.292C61.2179 164.735 59.782 168.903 58.3811 173.786C57.0215 178.933 55.6257 184.828 54.9619 191.467Z" fill="#333333"/>
</g>
</g>
<defs>
<clipPath id="clip0_1030_6576">
<rect width="380" height="254" fill="white"/>
</clipPath>
</defs>
</svg>
